<svg width="2" height="289" fill="none" 
  xmlns="http://www.w3.org/2000/svg">
  <mask id="a" maskUnits="userSpaceOnUse" x="0" y="0" width="2" height="289">
    <path fill="#C4C4C4" d="M0 0H2V289H0z"/>
  </mask>
  <g mask="url(#a)" fill="#4285F4">
    <circle cx="1" cy="1" r="1"/>
    <circle cx="1" cy="7" r="1"/>
    <circle cx="1" cy="13" r="1"/>
    <circle cx="1" cy="19" r="1"/>
    <circle cx="1" cy="25" r="1"/>
    <circle cx="1" cy="31" r="1"/>
    <circle cx="1" cy="37" r="1"/>
    <circle cx="1" cy="43" r="1"/>
    <circle cx="1" cy="49" r="1"/>
    <circle cx="1" cy="55" r="1"/>
    <circle cx="1" cy="61" r="1"/>
    <circle cx="1" cy="67" r="1"/>
    <circle cx="1" cy="73" r="1"/>
    <circle cx="1" cy="79" r="1"/>
    <circle cx="1" cy="85" r="1"/>
    <circle cx="1" cy="91" r="1"/>
    <circle cx="1" cy="97" r="1"/>
    <circle cx="1" cy="103" r="1"/>
    <circle cx="1" cy="109" r="1"/>
    <circle cx="1" cy="115" r="1"/>
    <circle cx="1" cy="121" r="1"/>
    <circle cx="1" cy="127" r="1"/>
    <circle cx="1" cy="133" r="1"/>
    <circle cx="1" cy="139" r="1"/>
    <circle cx="1" cy="145" r="1"/>
    <circle cx="1" cy="151" r="1"/>
    <circle cx="1" cy="157" r="1"/>
    <circle cx="1" cy="163" r="1"/>
    <circle cx="1" cy="169" r="1"/>
    <circle cx="1" cy="175" r="1"/>
    <circle cx="1" cy="181" r="1"/>
    <circle cx="1" cy="187" r="1"/>
    <circle cx="1" cy="193" r="1"/>
    <circle cx="1" cy="199" r="1"/>
    <circle cx="1" cy="205" r="1"/>
    <circle cx="1" cy="211" r="1"/>
    <circle cx="1" cy="217" r="1"/>
    <circle cx="1" cy="223" r="1"/>
    <circle cx="1" cy="229" r="1"/>
    <circle cx="1" cy="235" r="1"/>
    <circle cx="1" cy="241" r="1"/>
    <circle cx="1" cy="247" r="1"/>
    <circle cx="1" cy="253" r="1"/>
    <circle cx="1" cy="259" r="1"/>
    <circle cx="1" cy="265" r="1"/>
    <circle cx="1" cy="271" r="1"/>
    <circle cx="1" cy="277" r="1"/>
    <circle cx="1" cy="283" r="1"/>
    <circle cx="1" cy="289" r="1"/>
  </g>
</svg>