<svg width="24" height="24" viewBox="0 0 24 24" fill="none" xmlns="http://www.w3.org/2000/svg">
<path fill-rule="evenodd" clip-rule="evenodd" d="M21.5 8.95658C11.4586 0.0542722 2.5 8.95658 2.5 8.95658L3.92765 10.375C12.7385 3.03802 20.1711 10.375 20.1711 10.375L20.8634 9.63606L21.5 8.95658ZM7.69287 14.1354L9.15105 15.6394C12.0676 12.7411 14.9472 15.6394 14.9472 15.6394L16.2946 14.1354C11.7723 9.95334 7.69287 14.1354 7.69287 14.1354ZM5.03491 11.549C5.03491 11.549 11.606 4.87214 18.9403 11.549L17.5376 12.9429C17.5376 12.9429 12.6398 7.92919 6.56084 12.9429L5.03491 11.549ZM13.6787 17.3196C13.6787 18.2477 12.9216 19 11.9877 19C11.0537 19 10.2966 18.2477 10.2966 17.3196C10.2966 16.3915 11.0537 15.6392 11.9877 15.6392C12.9216 15.6392 13.6787 16.3915 13.6787 17.3196Z" fill="#97BE0E"/>
</svg>
