<svg fill="none" height="24" viewBox="0 0 24 24" width="24" xmlns="http://www.w3.org/2000/svg"><path clip-rule="evenodd" d="m20.125 6.375h.9375c.5176 0 .9375.41953.9375.9375v3.125c0 .5176-.4199.9375-.9375.9375h-.9375v.8164c.3668.218.625.6008.625 1.0586v5c0 .6902-.5598 1.25-1.25 1.25v1.25c0 .6902-.5598 1.25-1.25 1.25h-1.25c-.6902 0-1.25-.5598-1.25-1.25v-1.25h-7.5v1.25c0 .6902-.55977 1.25-1.25 1.25h-1.25c-.69023 0-1.25-.5598-1.25-1.25v-1.25c-.69023 0-1.25-.5598-1.25-1.25v-5c0-.4578.2582-.841.625-1.0586v-.8164h-.9375c-.51758 0-.9375-.4199-.9375-.9375v-3.125c0-.51797.41992-.9375.9375-.9375h.9375v-1.25c0-1.75 3.59805-3.125 8.125-3.125 4.527 0 8.125 1.375 8.125 3.125zm-11.5625-1.875c-.17266 0-.3125.13984-.3125.3125v.625c0 .17266.13984.3125.3125.3125h6.875c.1727 0 .3125-.13984.3125-.3125v-.625c0-.17266-.1398-.3125-.3125-.3125zm-2.1875 12.5c-.69023 0-1.25-.5598-1.25-1.25s.55977-1.25 1.25-1.25 1.25.5598 1.25 1.25-.55977 1.25-1.25 1.25zm1.25-5h3.75v-5h-3.75c-.69023 0-1.25.55977-1.25 1.25v2.5c0 .6902.55977 1.25 1.25 1.25zm5 0v-5h3.75c.6902 0 1.25.55977 1.25 1.25v2.5c0 .6902-.5598 1.25-1.25 1.25zm3.75 3.75c0 .6902.5598 1.25 1.25 1.25s1.25-.5598 1.25-1.25-.5598-1.25-1.25-1.25-1.25.5598-1.25 1.25z" fill="#6f6f6f" fill-rule="evenodd"/></svg>