<svg fill="none" height="24" viewBox="0 0 24 24" width="24" xmlns="http://www.w3.org/2000/svg" xmlns:xlink="http://www.w3.org/1999/xlink"><mask id="a" height="24" maskUnits="userSpaceOnUse" width="24" x="0" y="0"><path clip-rule="evenodd" d="m3 18.625v-9c0-1.82162 2.47596-3.375 5.2241-3.375h7.5518c2.7403 0 5.2241 1.54849 5.2241 3.375v9c0 1.8639-2.5714 3.375-5.1429 3.375h-7.71424c-2.61161 0-5.14286-1.511-5.14286-3.375zm2.125-1.6125v-5.775c0-.6835.41973-1.2375.9375-1.2375h11.875c.5178 0 .9375.554.9375 1.2375v5.775c0 .6835-.4197 1.2375-.9375 1.2375h-11.875c-.51777 0-.9375-.554-.9375-1.2375z" fill="#000" fill-rule="evenodd"/><rect fill="#000" height="1.5" rx=".75" width="15" x="4" y="2"/><path d="m11 3.5h1v3h-1z" fill="#000"/></mask><g mask="url(#a)"><path d="m0 0h24v24h-24z" fill="#6f6f6f"/></g></svg>