<svg fill="none" height="24" viewBox="0 0 24 24" width="24" xmlns="http://www.w3.org/2000/svg"><path clip-rule="evenodd" d="m19.1587 8.88112h2.3341c.3045 0 .5278.28616.4542.58129l-.234.93569c-.0518.2082-.2389.3544-.4538.3544h-.7824c.5232.4573.8604 1.122.8604 1.8713v1.8714c0 .6288-.2401 1.1961-.6238 1.6347v2.1079c0 .6889-.5586 1.2476-1.2475 1.2476h-1.2476c-.6889 0-1.2476-.5587-1.2476-1.2476v-1.2475h-9.98047v1.2475c0 .6889-.55867 1.2476-1.24756 1.2476h-1.24756c-.68889 0-1.24757-.5587-1.24757-1.2476v-2.1079c-.38362-.439-.62378-1.0063-.62378-1.6347v-1.8714c0-.7493.33723-1.414.86082-1.8713h-.78246c-.21481 0-.40194-.1462-.4538-.3544l-.23391-.93569c-.07408-.29513.14931-.58129.4538-.58129h2.33372l.64873-1.62183c.66706-1.66745 2.25848-2.74464 4.05419-2.74464h4.95125c1.7961 0 3.3872 1.07719 4.0538 2.74464zm-9.65385-1.87134c-.7653 0-1.45341.46588-1.73762 1.17621l-.777 1.94271h9.98047l-.777-1.94271c-.2842-.71033-.9723-1.17621-1.7376-1.17621zm-3.76218 7.47762c-.74854 0-1.24756-.4975-1.24756-1.2437s.49902-1.2437 1.24756-1.2437 1.87135 1.1193 1.87135 1.8655c0 .6557-.8669.6392-1.58506.6256-.09915-.0019-.19548-.0037-.28629-.0037zm12.18933.0037c.0992-.0019.1955-.0037.2863-.0037.7485 0 1.2476-.4975 1.2476-1.2437s-.4991-1.2437-1.2476-1.2437-1.8713 1.1193-1.8713 1.8655c0 .6557.8669.6392 1.585.6256z" fill="#88898b" fill-rule="evenodd"/></svg>