<svg fill="none" height="24" viewBox="0 0 24 24" width="24" xmlns="http://www.w3.org/2000/svg"><path clip-rule="evenodd" d="m18.4496 6.08569-4.2426-4.24264c-.0707-.07072-.2121-.21214-.3536-.21214-.2121-.07071-.4949-.07071-.7071 0-.1414 0-.2828.14142-.3535.21214l-4.24267 4.24264c-.42426.42426-.42426.98995 0 1.41421.42427.42426.98995.42426 1.41421 0l2.54556-2.54558v7.49528c0 .5657.4243.99.99.99.2828 0 .495-.0707.7071-.2828.2121-.2122.2828-.4243.2828-.7072v-7.49528l2.5456 2.54558c.4243.42426.99.42426 1.4142 0 .4243-.42426.4243-.98995 0-1.41421zm-8.93967 12.95981v-7.4953c0-.5657.42426-.9899.98997-.9899.5657 0 .9899.4242.9899.9899v7.4953l2.5456-2.5455c.4243-.4243.99-.4243 1.4142 0 .4243.4242.4243.9899 0 1.4142l-4.2426 4.2426c-.0707.0707-.2121.2121-.3536.2121-.2121.0708-.4949.0708-.7071 0-.1414 0-.28282-.1414-.35353-.2121l-4.24264-4.2426c-.42426-.4243-.42426-.99 0-1.4142.42427-.4243.98995-.4243 1.41422 0z" fill="#88898b" fill-rule="evenodd"/></svg>