<svg fill="none" height="24" viewBox="0 0 24 24" width="24" xmlns="http://www.w3.org/2000/svg" xmlns:xlink="http://www.w3.org/1999/xlink"><mask id="a" height="14" maskUnits="userSpaceOnUse" width="8" x="8" y="5"><path d="m15.7 12.7-6 6c-.2.2-.4.3-.7.3s-.5-.1-.7-.3c-.4-.4-.4-1 0-1.4l5.3-5.3-5.3-5.3c-.4-.4-.4-1 0-1.4s1-.4 1.4 0l6 6c.4.4.4 1 0 1.4z" fill="#fff"/></mask><path d="m15.7 12.7-6 6c-.2.2-.4.3-.7.3s-.5-.1-.7-.3c-.4-.4-.4-1 0-1.4l5.3-5.3-5.3-5.3c-.4-.4-.4-1 0-1.4s1-.4 1.4 0l6 6c.4.4.4 1 0 1.4z" fill="#333"/><g mask="url(#a)"><path d="m0 0h24v24h-24z" fill="#88898b"/></g></svg>