<svg fill="none" height="16" viewBox="0 0 16 16" width="16" xmlns="http://www.w3.org/2000/svg" xmlns:xlink="http://www.w3.org/1999/xlink"><mask id="a" height="6" maskUnits="userSpaceOnUse" width="10" x="3" y="5"><path d="m12.4667 6.46665-4.00002 3.99995c-.13334.1334-.26667.2-.46667.2s-.33333-.0666-.46667-.2l-4-3.99995c-.26666-.26667-.26666-.66667 0-.93334.26667-.26666.66667-.26666.93334 0l3.53333 3.53334 3.53329-3.53334c.2667-.26666.6667-.26666.9334 0 .2666.26667.2666.66667 0 .93334z" fill="#fff"/></mask><path d="m12.4667 6.46665-4.00002 3.99995c-.13334.1334-.26667.2-.46667.2s-.33333-.0666-.46667-.2l-4-3.99995c-.26666-.26667-.26666-.66667 0-.93334.26667-.26666.66667-.26666.93334 0l3.53333 3.53334 3.53329-3.53334c.2667-.26666.6667-.26666.9334 0 .2666.26667.2666.66667 0 .93334z" fill="#97be0e"/><g mask="url(#a)"><path d="m0 0h16v16h-16z" fill="#97be0e"/></g></svg>