<svg fill="none" height="16" viewBox="0 0 16 16" width="16" xmlns="http://www.w3.org/2000/svg"><path clip-rule="evenodd" d="m7.99984.666687c-4.06667 0-7.333336 3.266663-7.333336 7.333333 0 4.06668 3.266666 7.33338 7.333336 7.33338 4.06666 0 7.33336-3.2667 7.33336-7.33338 0-4.06667-3.2667-7.333333-7.33336-7.333333zm0 13.333313c-3.33334 0-6-2.6666-6-5.99998 0-3.33333 2.66666-6 6-6 3.33336 0 5.99996 2.66667 5.99996 6 0 3.33338-2.6666 5.99998-5.99996 5.99998zm2.46666-3.5333c.2667-.2667.2667-.66668 0-.93335l-1.8-1.8v-3.73333c0-.4-.26666-.66667-.66666-.66667s-.66667.26667-.66667.66667v4c0 .2.06667.33333.2.46667l2 2.00001c.13333.1333.26667.2.46667.2.19996 0 .33336-.0667.46666-.2z" fill="#6f6f6f" fill-rule="evenodd"/></svg>