<svg fill="none" height="14" viewBox="0 0 15 14" width="15" xmlns="http://www.w3.org/2000/svg" xmlns:xlink="http://www.w3.org/1999/xlink"><mask id="a" height="14" maskUnits="userSpaceOnUse" width="14" x="0" y="0"><path clip-rule="evenodd" d="m.707764 6.99998c0-3.55833 2.858336-6.416667 6.416666-6.416667 3.55837 0 6.41667 2.858337 6.41667 6.416667 0 3.55832-2.8583 6.41662-6.41667 6.41662-3.55833 0-6.416666-2.8583-6.416666-6.41662zm6.999996 3.50002v1.6916c2.45004-.2333 4.37504-2.1583 4.60834-4.60829h-1.6917c-.35 0-.5833-.23333-.5833-.58333s.2333-.58333.5833-.58333h1.6917c-.2333-2.39167-2.1583-4.31667-4.60834-4.60834v1.69167c0 .35-.23333.58333-.58333.58333s-.58333-.23333-.58333-.58333v-1.69167c-2.45.23334-4.375 2.15834-4.60834 4.60834h1.69167c.35 0 .58333.23333.58333.58333s-.23333.58333-.58333.58333h-1.69167c.23334 2.39167 2.15834 4.31669 4.60834 4.60829v-1.6916c0-.35.23333-.58335.58333-.58335s.58333.23335.58333.58335z" fill="#fff" fill-rule="evenodd"/></mask><circle cx="7.12451" cy="7" fill="#333" r="2.1875"/><path clip-rule="evenodd" d="m.707764 6.99998c0-3.55833 2.858336-6.416667 6.416666-6.416667 3.55837 0 6.41667 2.858337 6.41667 6.416667 0 3.55832-2.8583 6.41662-6.41667 6.41662-3.55833 0-6.416666-2.8583-6.416666-6.41662zm6.999996 3.50002v1.6916c2.45004-.2333 4.37504-2.1583 4.60834-4.60829h-1.6917c-.35 0-.5833-.23333-.5833-.58333s.2333-.58333.5833-.58333h1.6917c-.2333-2.39167-2.1583-4.31667-4.60834-4.60834v1.69167c0 .35-.23333.58333-.58333.58333s-.58333-.23333-.58333-.58333v-1.69167c-2.45.23334-4.375 2.15834-4.60834 4.60834h1.69167c.35 0 .58333.23333.58333.58333s-.23333.58333-.58333.58333h-1.69167c.23334 2.39167 2.15834 4.31669 4.60834 4.60829v-1.6916c0-.35.23333-.58335.58333-.58335s.58333.23335.58333.58335z" fill="#333" fill-rule="evenodd"/><g mask="url(#a)"><path d="m.124512 0h14v14h-14z" fill="#333"/></g></svg>