<svg fill="none" height="16" viewBox="0 0 15 16" width="15" xmlns="http://www.w3.org/2000/svg"><path clip-rule="evenodd" d="m7.20054 11.2666c-.06667 0-.13334-.0666-.2-.1333l-2.66667-2.66667c-.26667-.26667-.26667-.66667 0-.93334.26667-.26666.66667-.26666.93333 0l1.53334 1.53334v-7.73334c0-.399997.26666-.666664.66666-.666664s.66667.266667.66667.666664v7.73334l1.53333-1.53334c.26667-.26666.6667-.26666.9333 0 .2667.26667.2667.66667 0 .93334l-2.66663 2.66667c-.03333.0333-.06667.05-.1.0667-.03333.0166-.06667.0333-.1.0666-.06667.0667-.2.0667-.26667.0667-.06666 0-.2 0-.26666-.0667zm6.93336 2.0667v-2c0-.4-.2667-.6667-.6667-.6667s-.6667.2667-.6667.6667v2c0 .4-.2666.6667-.6666.6667h-9.33336c-.4 0-.66667-.2667-.66667-.6667v-2c0-.4-.26667-.6667-.66667-.6667s-.666663.2667-.666663.6667v2c0 1.1333.866663 2 2.000003 2h9.33336c1.1333 0 2-.8667 2-2z" fill="#6f6f6f" fill-rule="evenodd"/></svg>