<svg fill="none" height="16" viewBox="0 0 16 16" width="16" xmlns="http://www.w3.org/2000/svg"><path clip-rule="evenodd" d="m14.5173 12.2596c.4272.7406-.1091 1.6663-.9625 1.6663h-11.10845c-.85502 0-1.38886-.9272-.96243-1.6663l5.55431-9.63032c.42747-.74095 1.49815-.7396 1.92486 0zm-6.51664-1.9911c-.58808 0-1.06481.4768-1.06481 1.0648 0 .5881.47673 1.0648 1.06481 1.0648s1.06482-.4767 1.06482-1.0648c0-.588-.47674-1.0648-1.06482-1.0648zm-.83923-.67929-.17172-3.14815c-.00868-.15912.11799-.29291.27734-.29291h1.4672c.15935 0 .28604.13379.27736.29291l-.17171 3.14815c-.00803.14732-.12984.26264-.27736.26264h-1.12375c-.14753 0-.26933-.11532-.27736-.26264z" fill="#ff991f" fill-rule="evenodd"/></svg>