<svg fill="none" height="24" viewBox="0 0 24 24" width="24" xmlns="http://www.w3.org/2000/svg" xmlns:xlink="http://www.w3.org/1999/xlink"><mask id="a" height="20" maskUnits="userSpaceOnUse" width="20" x="2" y="2"><path clip-rule="evenodd" d="m22 9v-6c0-.1 0-.3-.1-.4-.1-.2-.3-.4-.5-.5-.1-.1-.3-.1-.4-.1h-6c-.6 0-1 .4-1 1s.4 1 1 1h3.6l-5.3 5.3c-.4.4-.4 1 0 1.4.2.2.4.3.7.3s.5-.1.7-.3l5.3-5.3v3.6c0 .6.4 1 1 1s1-.4 1-1zm-18 9.6 5.3-5.3c.4-.4 1-.4 1.4 0s.4 1 0 1.4l-5.3 5.3h3.6c.6 0 1 .4 1 1s-.4 1-1 1h-6c-.1 0-.3 0-.4-.1-.2-.1-.4-.3-.5-.5-.1-.1-.1-.3-.1-.4v-6c0-.6.4-1 1-1s1 .4 1 1z" fill="#fff" fill-rule="evenodd"/></mask><g mask="url(#a)"><path d="m0 0h24v24h-24z" fill="#6f6f6f"/></g></svg>