<svg fill="none" height="18" viewBox="0 0 18 18" width="18" xmlns="http://www.w3.org/2000/svg" xmlns:xlink="http://www.w3.org/1999/xlink"><mask id="a" height="18" maskUnits="userSpaceOnUse" width="18" x="0" y="0"><path clip-rule="evenodd" d="m.75 9c0-4.575 3.675-8.25 8.25-8.25s8.25 3.675 8.25 8.25-3.675 8.25-8.25 8.25-8.25-3.675-8.25-8.25zm9 4.5v2.175c3.15-.3 5.625-2.775 5.925-5.925h-2.175c-.45 0-.75-.3-.75-.75s.3-.75.75-.75h2.175c-.3-3.075-2.775-5.55-5.925-5.925v2.175c0 .45-.3.75-.75.75s-.75-.3-.75-.75v-2.175c-3.15.3-5.625 2.775-5.925 5.925h2.175c.45 0 .75.3.75.75s-.3.75-.75.75h-2.175c.3 3.075 2.775 5.55 5.925 5.925v-2.175c0-.45.3-.75.75-.75s.75.3.75.75z" fill="#fff" fill-rule="evenodd"/></mask><path clip-rule="evenodd" d="m.75 9c0-4.575 3.675-8.25 8.25-8.25s8.25 3.675 8.25 8.25-3.675 8.25-8.25 8.25-8.25-3.675-8.25-8.25zm9 4.5v2.175c3.15-.3 5.625-2.775 5.925-5.925h-2.175c-.45 0-.75-.3-.75-.75s.3-.75.75-.75h2.175c-.3-3.075-2.775-5.55-5.925-5.925v2.175c0 .45-.3.75-.75.75s-.75-.3-.75-.75v-2.175c-3.15.3-5.625 2.775-5.925 5.925h2.175c.45 0 .75.3.75.75s-.3.75-.75.75h-2.175c.3 3.075 2.775 5.55 5.925 5.925v-2.175c0-.45.3-.75.75-.75s.75.3.75.75z" fill="#333" fill-rule="evenodd"/><g mask="url(#a)"><path d="m0 0h18v18h-18z" fill="#4285f4"/></g></svg>