<svg fill="none" height="16" viewBox="0 0 16 16" width="16" xmlns="http://www.w3.org/2000/svg"><path clip-rule="evenodd" d="m7.99996 1.54163c-3.56659 0-6.45833 2.89278-6.45833 6.45833 0 3.56764 2.89174 6.45834 6.45833 6.45834 3.56654 0 6.45834-2.8907 6.45834-6.45834 0-3.56555-2.8918-6.45833-6.45834-6.45833zm0 2.86458c.60406 0 1.09375.48969 1.09375 1.09375s-.48969 1.09375-1.09375 1.09375-1.09375-.48969-1.09375-1.09375.48969-1.09375 1.09375-1.09375zm1.14583 6.92709c.17258 0 .3125-.1399.3125-.3125v-.625c0-.1726-.13992-.3125-.3125-.3125h-.3125v-2.60417c0-.17258-.13992-.3125-.3125-.3125h-1.66666c-.17258 0-.3125.13992-.3125.3125v.625c0 .17257.13992.3125.3125.3125h.3125v1.66667h-.3125c-.17258 0-.3125.1399-.3125.3125v.625c0 .1726.13992.3125.3125.3125z" fill="#88898b" fill-rule="evenodd"/></svg>