<svg fill="none" height="16" viewBox="0 0 16 16" width="16" xmlns="http://www.w3.org/2000/svg" xmlns:xlink="http://www.w3.org/1999/xlink"><mask id="a" height="16" maskUnits="userSpaceOnUse" width="16" x="0" y="0"><path clip-rule="evenodd" d="m1.66666 3.33325h12.66664c.1842 0 .3334.14917.3334.33334v8.33331c0 .3681-.2986.6667-.6667.6667h-12.00001c-.36812 0-.66666-.2986-.66666-.6667v-8.33331c0-.18417.14916-.33334.33333-.33334zm.33333 8.66665h12.00001v-5.99998h-12.00001zm12.00001-6.66665h-12.00001v-1.33333h12.00001zm-7.50001 5.33335h-3c-.09208 0-.16666-.0746-.16666-.1667v-.3333c0-.0921.07458-.16668.16666-.16668h3c.09209 0 .16667.07458.16667.16668v.3333c0 .0921-.07458.1667-.16667.1667zm3 0h3.00001c.0921 0 .1667-.0746.1667-.1667v-.3333c0-.0921-.0746-.16668-.1667-.16668h-3.00001c-.09208 0-.16666.07458-.16666.16668v.3333c0 .0921.07458.1667.16666.1667zm-1.66666-2.00001h-4.33334c-.09208 0-.16666-.07459-.16666-.16667v-.33333c0-.09209.07458-.16667.16666-.16667h4.33334c.09208 0 .16666.07458.16666.16667v.33333c0 .09208-.07458.16667-.16666.16667zm1.83333 0h2.66664c.1842 0 .3334-.14917.3334-.33334v-1.33333c0-.18417-.1492-.33333-.3334-.33333h-2.66664c-.18417 0-.33333.14916-.33333.33333v1.33333c0 .18417.14916.33334.33333.33334zm2.33334-1.33334h-2v.66667h2z" fill="#000" fill-rule="evenodd"/></mask><g mask="url(#a)"><path d="m0 0h16v16h-16z" fill="#6f6f6f"/></g></svg>