<svg fill="none" height="24" viewBox="0 0 24 24" width="24" xmlns="http://www.w3.org/2000/svg" xmlns:xlink="http://www.w3.org/1999/xlink"><mask id="a" height="16" maskUnits="userSpaceOnUse" width="16" x="4" y="4"><path d="m20 12c0 .6-.4 1-1 1h-6v6c0 .6-.4 1-1 1s-1-.4-1-1v-6h-6c-.6 0-1-.4-1-1s.4-1 1-1h6v-6c0-.6.4-1 1-1s1 .4 1 1v6h6c.6 0 1 .4 1 1z" fill="#fff"/></mask><path d="m20 12c0 .6-.4 1-1 1h-6v6c0 .6-.4 1-1 1s-1-.4-1-1v-6h-6c-.6 0-1-.4-1-1s.4-1 1-1h6v-6c0-.6.4-1 1-1s1 .4 1 1v6h6c.6 0 1 .4 1 1z" fill="#000"/><g mask="url(#a)"><path d="m0 0h24v24h-24z" fill="#6f6f6f"/></g></svg>