<svg fill="none" height="16" viewBox="0 0 15 16" width="15" xmlns="http://www.w3.org/2000/svg"><path clip-rule="evenodd" d="m12.2478 5.33329h.6667c1.1333 0 2 .86667 2 2v3.33331c0 1.1334-.8667 2-2 2h-.6667v2c0 .4-.2667.6667-.6667.6667h-7.99996c-.4 0-.66667-.2667-.66667-.6667v-2h-.66667c-1.13333 0-1.999997-.8666-1.999997-2v-3.33331c0-1.13333.866667-2 1.999997-2h.66667v-4c0-.399997.26667-.666664.66667-.666664h7.99996c.4 0 .6667.266667.6667.666664zm-1.3333-3.33333h-6.6667v3.33333h6.6667zm0 12.00004h-6.6667v-4.00004h6.6667zm2-2.6667c.4 0 .6666-.2667.6666-.6667v-3.33331c0-.4-.2666-.66666-.6666-.66666h-10.6667c-.4 0-.66666.26666-.66666.66666v3.33331c0 .4.26666.6667.66666.6667h.66667v-2.00001c0-.4.26667-.66666.66667-.66666h7.99996c.4 0 .6667.26666.6667.66666v2.00001z" fill="#6f6f6f" fill-rule="evenodd"/></svg>