<svg fill="none" height="16" viewBox="0 0 16 16" width="16" xmlns="http://www.w3.org/2000/svg" xmlns:xlink="http://www.w3.org/1999/xlink"><mask id="a" height="16" maskUnits="userSpaceOnUse" width="16" x="0" y="0"><path clip-rule="evenodd" d="m13.5333 10.2667c.0667-.1334.2-.2667.4667-.2667 1.1333 0 2-.86667 2-2s-.8667-2-2-2h-.1333c-.1334 0-.2667-.06667-.3334-.2 0-.06667 0-.06667-.0666-.13333-.0667-.13334-.0667-.33334.1333-.53334.8-.8.8-2.06666 0-2.8-.4-.4-.8667-.6-1.4-.6s-1.0667.2-1.4667.6c-.1333.13334-.3333.13334-.4666.06667-.1334 0-.2667-.2-.2667-.4 0-1.133333-.86667-2-2-2s-2 .866667-2 2v.13333c0 .13334-.06667.26667-.2.33334-.02833 0-.04462 0-.05911.00511-.0196.00693-.03589.02322-.07422.06155-.13334.06667-.33334 0-.53334-.13333-.8-.8-2.06666-.8-2.8 0-.8.8-.8 2.06667.06667 2.86667.13333.13333.13333.33333.06667.53333-.06667.13333-.26667.26667-.46667.26667-1.133333 0-2 .86666-2 2 0 1.13333.866667 2.00003 2 2.00003h.13333c.2 0 .33334.1333.4.2666.06667.1334.06667.3334-.13333.5334-.4.4-.6.8666-.6 1.4 0 .5333.2 1 .6 1.4.8.8 2.06667.8 2.86667-.0667.13333-.1333.33333-.1333.53333-.0667.2.0667.26667.2.26667.4667 0 1.1333.86666 2 2 2 1.13333 0 2.00003-.8667 2.00003-2v-.1333c0-.2.1333-.3334.2666-.4.1334-.0667.3334-.0667.5334.1333.8.8 2.0666.8 2.8 0 .8-.8.8-2.0667-.0667-2.8667-.0667-.1333-.1333-.3333-.0667-.4666zm-8.19997-2.2667c0-1.46667 1.2-2.66667 2.66667-2.66667s2.6667 1.2 2.6667 2.66667-1.20003 2.6667-2.6667 2.6667-2.66667-1.20003-2.66667-2.6667zm1.33334 0c0 .73333.6 1.33333 1.33333 1.33333s1.33333-.6 1.33333-1.33333-.6-1.33333-1.33333-1.33333-1.33333.6-1.33333 1.33333zm6.06663 3.7333c-.5333-.6-.6666-1.3333-.4-1.99997.2667-.66666.9334-1.06666 1.6-1.06666.4667 0 .7334-.26667.7334-.66667s-.2667-.66667-.6667-.66667h-.1333c-.6667 0-1.3334-.4-1.6-1.06666-.0667-.06667-.0667-.13334-.0667-.2-.2-.6-.0667-1.33334.4-1.8.3333-.33334.3333-.73334.0667-1-.1334-.13334-.2667-.2-.4667-.2s-.3333.06666-.4667.2c-.6.53333-1.3333.66666-1.99997.4-.66666-.26667-1.06666-.86667-1.06666-1.6 0-.46667-.26667-.73334-.66667-.73334s-.66667.26667-.66667.66667v.13333c0 .66667-.4 1.33334-1.06666 1.6-.06667.06667-.13334.06667-.2.06667-.6.2-1.33334.06667-1.8-.4-.33334-.33333-.73334-.33333-1-.06667-.26667.26667-.26667.66667 0 .93334.53333.6.66666 1.33333.4 2-.26667.66666-.86667 1.13333-1.6 1.13333h-.06667c-.4 0-.66667.26667-.66667.66667s.26667.66666.66667.66666h.13333c.66667 0 1.33334.4 1.6 1.06667.33334.6667.2 1.4-.33333 1.9333-.2.2-.26667.3334-.26667.5334s.06667.3333.2.4666c.26667.2667.66667.2667.93334 0 .33333-.3333.8-.5333 1.26666-.5333.26667 0 .53334 0 .73334.1333.66666.2667 1.13333.8667 1.13333 1.6v.0667c0 .4.26667.6667.66667.6667s.66666-.2667.66666-.6667v-.1333c0-.6667.4-1.3334 1.06667-1.6.6667-.3334 1.4-.2 1.9333.3333.2.2.3334.2667.5334.2667s.3333-.0667.4666-.2c.1334-.1334.2-.2667.2-.4667s-.0666-.3333-.2-.4667z" fill="#fff" fill-rule="evenodd"/></mask><path clip-rule="evenodd" d="m13.5333 10.2667c.0667-.1334.2-.2667.4667-.2667 1.1333 0 2-.86667 2-2s-.8667-2-2-2h-.1333c-.1334 0-.2667-.06667-.3334-.2 0-.06667 0-.06667-.0666-.13333-.0667-.13334-.0667-.33334.1333-.53334.8-.8.8-2.06666 0-2.8-.4-.4-.8667-.6-1.4-.6s-1.0667.2-1.4667.6c-.1333.13334-.3333.13334-.4666.06667-.1334 0-.2667-.2-.2667-.4 0-1.133333-.86667-2-2-2s-2 .866667-2 2v.13333c0 .13334-.06667.26667-.2.33334-.02833 0-.04462 0-.05911.00511-.0196.00693-.03589.02322-.07422.06155-.13334.06667-.33334 0-.53334-.13333-.8-.8-2.06666-.8-2.8 0-.8.8-.8 2.06667.06667 2.86667.13333.13333.13333.33333.06667.53333-.06667.13333-.26667.26667-.46667.26667-1.133333 0-2 .86666-2 2 0 1.13333.866667 2.00003 2 2.00003h.13333c.2 0 .33334.1333.4.2666.06667.1334.06667.3334-.13333.5334-.4.4-.6.8666-.6 1.4 0 .5333.2 1 .6 1.4.8.8 2.06667.8 2.86667-.0667.13333-.1333.33333-.1333.53333-.0667.2.0667.26667.2.26667.4667 0 1.1333.86666 2 2 2 1.13333 0 2.00003-.8667 2.00003-2v-.1333c0-.2.1333-.3334.2666-.4.1334-.0667.3334-.0667.5334.1333.8.8 2.0666.8 2.8 0 .8-.8.8-2.0667-.0667-2.8667-.0667-.1333-.1333-.3333-.0667-.4666zm-8.19997-2.2667c0-1.46667 1.2-2.66667 2.66667-2.66667s2.6667 1.2 2.6667 2.66667-1.20003 2.6667-2.6667 2.6667-2.66667-1.20003-2.66667-2.6667zm1.33334 0c0 .73333.6 1.33333 1.33333 1.33333s1.33333-.6 1.33333-1.33333-.6-1.33333-1.33333-1.33333-1.33333.6-1.33333 1.33333zm6.06663 3.7333c-.5333-.6-.6666-1.3333-.4-1.99997.2667-.66666.9334-1.06666 1.6-1.06666.4667 0 .7334-.26667.7334-.66667s-.2667-.66667-.6667-.66667h-.1333c-.6667 0-1.3334-.4-1.6-1.06666-.0667-.06667-.0667-.13334-.0667-.2-.2-.6-.0667-1.33334.4-1.8.3333-.33334.3333-.73334.0667-1-.1334-.13334-.2667-.2-.4667-.2s-.3333.06666-.4667.2c-.6.53333-1.3333.66666-1.99997.4-.66666-.26667-1.06666-.86667-1.06666-1.6 0-.46667-.26667-.73334-.66667-.73334s-.66667.26667-.66667.66667v.13333c0 .66667-.4 1.33334-1.06666 1.6-.06667.06667-.13334.06667-.2.06667-.6.2-1.33334.06667-1.8-.4-.33334-.33333-.73334-.33333-1-.06667-.26667.26667-.26667.66667 0 .93334.53333.6.66666 1.33333.4 2-.26667.66666-.86667 1.13333-1.6 1.13333h-.06667c-.4 0-.66667.26667-.66667.66667s.26667.66666.66667.66666h.13333c.66667 0 1.33334.4 1.6 1.06667.33334.6667.2 1.4-.33333 1.9333-.2.2-.26667.3334-.26667.5334s.06667.3333.2.4666c.26667.2667.66667.2667.93334 0 .33333-.3333.8-.5333 1.26666-.5333.26667 0 .53334 0 .73334.1333.66666.2667 1.13333.8667 1.13333 1.6v.0667c0 .4.26667.6667.66667.6667s.66666-.2667.66666-.6667v-.1333c0-.6667.4-1.3334 1.06667-1.6.6667-.3334 1.4-.2 1.9333.3333.2.2.3334.2667.5334.2667s.3333-.0667.4666-.2c.1334-.1334.2-.2667.2-.4667s-.0666-.3333-.2-.4667z" fill="#000" fill-rule="evenodd"/><g mask="url(#a)"><path d="m0 0h16v16h-16z" fill="#97be0e"/></g></svg>