<svg fill="none" height="16" viewBox="0 0 15 16" width="15" xmlns="http://www.w3.org/2000/svg"><path clip-rule="evenodd" d="m9.50825 10.8c.46667-.4667 1.13335-.80004 1.86665-.80004 1.4667 0 2.6667 1.20004 2.6667 2.66664 0 1.4667-1.2 2.6667-2.6667 2.6667-1.46665 0-2.66665-1.2-2.66665-2.6667 0-.1333.01667-.25.03333-.3666.01667-.1167.03334-.2334.03334-.3667l-3.53333-2.06667c-.46667.46667-1.13334.79997-1.86667.79997-1.46667 0-2.666668-1.19997-2.666668-2.66664s1.199998-2.66667 2.666668-2.66667c.73333 0 1.4.33334 1.86667.8l3.6-2.06666c-.01144-.04576-.02288-.08955-.03398-.13205-.05361-.20521-.09936-.38037-.09936-.60129 0-1.46666 1.2-2.666664 2.66665-2.666664 1.4667 0 2.6667 1.200004 2.6667 2.666664 0 1.46667-1.2 2.66667-2.6667 2.66667-.7333 0-1.39998-.33333-1.93331-.8l-3.53334 2.06667c.01144.04575.02288.08954.03398.13204.0536.20521.09936.38037.09936.60129 0 .13333-.01667.25-.03334.36667-.01666.11666-.03333.23333-.03333.36666zm3.20005-7.46671c0-.73333-.6-1.33333-1.3334-1.33333-.7333 0-1.3333.6-1.3333 1.33333 0 .73334.6 1.33334 1.3333 1.33334.7334 0 1.3334-.6 1.3334-1.33334zm-9.33338 6c-.73333 0-1.33333-.6-1.33333-1.33333s.6-1.33333 1.33333-1.33333 1.33333.6 1.33333 1.33333-.6 1.33333-1.33333 1.33333zm6.66668 3.33331c0 .7334.6 1.3334 1.3333 1.3334.7334 0 1.3334-.6 1.3334-1.3334 0-.7333-.6-1.3333-1.3334-1.3333-.4666 0-.9333.2667-1.1333.6667-.1333.2-.2.4-.2.6666z" fill="#6f6f6f" fill-rule="evenodd"/></svg>