<svg fill="none" height="24" viewBox="0 0 24 24" width="24" xmlns="http://www.w3.org/2000/svg"><path d="m13.3258 12 4.0062-4.00625.8262-.82617c.1219-.12188.1219-.31992 0-.4418l-.884-.88398c-.1219-.12188-.3199-.12188-.4418 0l-4.8324 4.8324-4.83242-4.83279c-.12188-.12188-.31992-.12188-.4418 0l-.88437.88398c-.12188.12188-.12188.31992 0 .4418l4.83279 4.83281-4.83279 4.8324c-.12188.1219-.12188.3199 0 .4418l.88398.884c.12188.1219.31992.1219.4418 0l4.83281-4.8324 4.0063 4.0062.8261.8262c.1219.1219.3199.1219.4418 0l.884-.884c.1219-.1219.1219-.3199 0-.4418z" fill="#6f6f6f"/></svg>