<svg fill="none" height="16" viewBox="0 0 16 16" width="16" xmlns="http://www.w3.org/2000/svg" xmlns:xlink="http://www.w3.org/1999/xlink"><mask id="a" height="17" maskUnits="userSpaceOnUse" width="14" x="1" y="0"><path d="m13.4485 5.66138-.0017-.01239-.0021-.01235c-.441-2.66314-2.7398-4.61923-5.44088-4.63662v-.000082l-.01288.000082c-2.7011.01739-4.99992 1.97348-5.44089 4.63662l-.00278.01679-.00221.01687c-.14084 1.07674.05028 2.17051.54755 3.13582.60894 1.26728 1.34282 2.47088 2.19076 3.59308.51774.7171 1.07701 1.4028 1.61918 2.0579.25039.3159.62213.5119 1.0242.5404l.04098.0029.04108-.0005c.43191-.0049.83886-.2039 1.10776-.542.54566-.6593 1.09793-1.3426 1.61853-2.0569.8495-1.1239 1.5845-2.3297 2.1942-3.59923.4885-.96972.6697-2.06508.5192-3.14039z" fill="#fff" stroke="#fff" stroke-width="2"/></mask><path d="m13.4485 5.66138-.0017-.01239-.0021-.01235c-.441-2.66314-2.7398-4.61923-5.44088-4.63662v-.000082l-.01288.000082c-2.7011.01739-4.99992 1.97348-5.44089 4.63662l-.00278.01679-.00221.01687c-.14084 1.07674.05028 2.17051.54755 3.13582.60894 1.26728 1.34282 2.47088 2.19076 3.59308.51774.7171 1.07701 1.4028 1.61918 2.0579.25039.3159.62213.5119 1.0242.5404l.04098.0029.04108-.0005c.43191-.0049.83886-.2039 1.10776-.542.54566-.6593 1.09793-1.3426 1.61853-2.0569.8495-1.1239 1.5845-2.3297 2.1942-3.59923.4885-.96972.6697-2.06508.5192-3.14039z" fill="#fff" stroke="#fff" stroke-width="2"/><g mask="url(#a)"><path d="m0 0h16v16h-16z" fill="#6f6f6f"/><circle cx="8" cy="6.5" fill="#fff" r="2"/></g></svg>