<svg fill="none" height="24" viewBox="0 0 24 24" width="24" xmlns="http://www.w3.org/2000/svg"><path clip-rule="evenodd" d="m20.75 5.75v10c0 2.024-2.4072 3.75-5.079 3.75l2.4602 1.9422c.2323.1835.1017.5578-.1937.5578h-11.875c-.29602 0-.42547-.3748-.19363-.5578l2.46011-1.9422c-2.66414 0-5.07898-1.7205-5.07898-3.75v-10c0-2.07105 2.5-3.75 5-3.75h7.5c2.5391 0 5 1.67895 5 3.75zm-1.875 5.3125v-4.375c0-.51777-.4197-.9375-.9375-.9375h-11.875c-.51777 0-.9375.41973-.9375.9375v4.375c0 .5178.41973.9375.9375.9375h11.875c.5178 0 .9375-.4197.9375-.9375zm-9.0625 4.6875c0-1.2081.9794-2.1875 2.1875-2.1875s2.1875.9794 2.1875 2.1875-.9794 2.1875-2.1875 2.1875-2.1875-.9794-2.1875-2.1875z" fill="#6f6f6f" fill-rule="evenodd"/></svg>