<svg fill="none" height="24" viewBox="0 0 24 24" width="24" xmlns="http://www.w3.org/2000/svg" xmlns:xlink="http://www.w3.org/1999/xlink"><mask id="a" height="23" maskUnits="userSpaceOnUse" width="18" x="3" y="1"><path d="m19.6776 8.56138-.0018-.01239-.002-.01235c-.6216-3.75373-3.8622-6.51209-7.6713-6.53662v-.00008l-.0129.00008c-3.80908.02453-7.04969 2.78289-7.67124 6.53662l-.00278.01679-.00221.01687c-.19835 1.5164.0715 3.0569.77317 4.416.90041 1.8749 1.98603 3.6555 3.24072 5.3154.76817 1.0644 1.60037 2.0848 2.41534 3.0695.2884.366.718.5934 1.1828.6263l.041.0029.0411-.0005c.4991-.0057.9692-.2363 1.2788-.6278.8186-.989 1.6412-2.0071 2.4148-3.0685 1.2562-1.6617 2.343-3.4445 3.2442-5.3217.6886-1.3648.9441-2.9068.7323-4.42052z" fill="#fff" stroke="#fff" stroke-width="2"/></mask><path d="m19.6776 8.56138-.0018-.01239-.002-.01235c-.6216-3.75373-3.8622-6.51209-7.6713-6.53662v-.00008l-.0129.00008c-3.80908.02453-7.04969 2.78289-7.67124 6.53662l-.00278.01679-.00221.01687c-.19835 1.5164.0715 3.0569.77317 4.416.90041 1.8749 1.98603 3.6555 3.24072 5.3154.76817 1.0644 1.60037 2.0848 2.41534 3.0695.2884.366.718.5934 1.1828.6263l.041.0029.0411-.0005c.4991-.0057.9692-.2363 1.2788-.6278.8186-.989 1.6412-2.0071 2.4148-3.0685 1.2562-1.6617 2.343-3.4445 3.2442-5.3217.6886-1.3648.9441-2.9068.7323-4.42052z" fill="#fff" stroke="#fff" stroke-width="2"/><g mask="url(#a)"><path d="m0 0h24v24h-24z" fill="#6f6f6f"/><circle cx="12" cy="9.75" fill="#fff" r="3"/></g></svg>