<svg fill="none" height="289" width="2" xmlns="http://www.w3.org/2000/svg" xmlns:xlink="http://www.w3.org/1999/xlink"><mask id="a" height="289" maskUnits="userSpaceOnUse" width="2" x="0" y="0"><path d="m0 0h2v289h-2z" fill="#c4c4c4"/></mask><g fill="#4285f4" mask="url(#a)"><circle cx="1" cy="1" r="1"/><circle cx="1" cy="7" r="1"/><circle cx="1" cy="13" r="1"/><circle cx="1" cy="19" r="1"/><circle cx="1" cy="25" r="1"/><circle cx="1" cy="31" r="1"/><circle cx="1" cy="37" r="1"/><circle cx="1" cy="43" r="1"/><circle cx="1" cy="49" r="1"/><circle cx="1" cy="55" r="1"/><circle cx="1" cy="61" r="1"/><circle cx="1" cy="67" r="1"/><circle cx="1" cy="73" r="1"/><circle cx="1" cy="79" r="1"/><circle cx="1" cy="85" r="1"/><circle cx="1" cy="91" r="1"/><circle cx="1" cy="97" r="1"/><circle cx="1" cy="103" r="1"/><circle cx="1" cy="109" r="1"/><circle cx="1" cy="115" r="1"/><circle cx="1" cy="121" r="1"/><circle cx="1" cy="127" r="1"/><circle cx="1" cy="133" r="1"/><circle cx="1" cy="139" r="1"/><circle cx="1" cy="145" r="1"/><circle cx="1" cy="151" r="1"/><circle cx="1" cy="157" r="1"/><circle cx="1" cy="163" r="1"/><circle cx="1" cy="169" r="1"/><circle cx="1" cy="175" r="1"/><circle cx="1" cy="181" r="1"/><circle cx="1" cy="187" r="1"/><circle cx="1" cy="193" r="1"/><circle cx="1" cy="199" r="1"/><circle cx="1" cy="205" r="1"/><circle cx="1" cy="211" r="1"/><circle cx="1" cy="217" r="1"/><circle cx="1" cy="223" r="1"/><circle cx="1" cy="229" r="1"/><circle cx="1" cy="235" r="1"/><circle cx="1" cy="241" r="1"/><circle cx="1" cy="247" r="1"/><circle cx="1" cy="253" r="1"/><circle cx="1" cy="259" r="1"/><circle cx="1" cy="265" r="1"/><circle cx="1" cy="271" r="1"/><circle cx="1" cy="277" r="1"/><circle cx="1" cy="283" r="1"/><circle cx="1" cy="289" r="1"/></g></svg>