<svg fill="none" height="24" viewBox="0 0 24 24" width="24" xmlns="http://www.w3.org/2000/svg"><path clip-rule="evenodd" d="m13.8518 5.74269c1.0332 0 1.8714-.83821 1.8714-1.87134 0-1.03314-.8382-1.87135-1.8714-1.87135-1.0331 0-1.8713.83821-1.8713 1.87135 0 1.03313.8382 1.87134 1.8713 1.87134zm3.6843 5.81291-.9084-.4601-.3782-1.14618c-.5731-1.73879-2.1715-2.95517-3.9844-2.95907-1.236-.00343-1.9851.30454-3.14214.78014h-.00001l-.00008.00003c-.15683.06447-.32116.13202-.4952.20229-.84211.33918-1.53217.98246-1.93762 1.80117l-.26121.53022c-.3041.616-.05848 1.3645.5536 1.6725.60819.308 1.34893.0585 1.65692-.5575l.26121-.5302c.13645-.2729.36258-.4873.64328-.6004l1.04485-.42105-.59261 2.36645c-.20273.8109.01561 1.6725.58091 2.2924l2.3353 2.5497c.2807.308.4795.6784.5809 1.0799l.7134 2.8577c.1677.6667.846 1.0761 1.5127.9084.6667-.1676 1.076-.846.9084-1.5126l-.8655-3.4698c-.1014-.4016-.3002-.7759-.5809-1.08l-1.7739-1.9376.6706-2.6783.2144.6432c.2066.6277.6511 1.1462 1.2359 1.4425l.9083.4601c.6082.308 1.349.0585 1.657-.5575.3002-.6121.0545-1.3685-.5575-1.6764zm-9.47763 6.3235c.24171-.2378.42885-.5224.5536-.8382l.80702-2.0078c.09225.1262.11154.1647.1341.2012.0604.0977.14425.1809 1.71381 1.8924l-.5263 1.3177c-.1286.3158-.3158.6004-.5536.8382l-2.31577 2.3158c-.48733.4874-1.27485.4874-1.76218 0-.48733-.4873-.48733-1.2787 0-1.766z" fill="#6f6f6f" fill-rule="evenodd"/></svg>